<svg width="36" height="36" viewBox="0 0 36 36" fill="none" xmlns="http://www.w3.org/2000/svg">
<path d="M16.9412 35.9998C15.7765 35.9998 14.7794 35.6473 13.95 34.9423C13.1206 34.2373 12.7059 33.3898 12.7059 32.3998H21.1765C21.1765 33.3898 20.7618 34.2373 19.9324 34.9423C19.1029 35.6473 18.1059 35.9998 16.9412 35.9998ZM2.11765 30.5998C1.51765 30.5998 1.01471 30.4273 0.608823 30.0823C0.202941 29.7373 0 29.3098 0 28.7998C0 28.2898 0.202941 27.8623 0.608823 27.5173C1.01471 27.1723 1.51765 26.9998 2.11765 26.9998H4.23529V14.3998C4.23529 11.9098 5.11765 9.69726 6.88235 7.76226C8.64706 5.82726 10.9412 4.55976 13.7647 3.95976V2.69976C13.7647 1.94976 14.0735 1.31226 14.6912 0.787256C15.3088 0.262256 16.0588 -0.000244141 16.9412 -0.000244141C17.8235 -0.000244141 18.5735 0.262256 19.1912 0.787256C19.8088 1.31226 20.1176 1.94976 20.1176 2.69976V3.28476C19.7647 3.88476 19.5 4.51476 19.3235 5.17476C19.1471 5.83476 19.0588 6.50976 19.0588 7.19976C19.0588 9.68976 20.0912 11.8123 22.1559 13.5673C24.2206 15.3223 26.7176 16.1998 29.6471 16.1998V26.9998H31.7647C32.3647 26.9998 32.8676 27.1723 33.2735 27.5173C33.6794 27.8623 33.8824 28.2898 33.8824 28.7998C33.8824 29.3098 33.6794 29.7373 33.2735 30.0823C32.8676 30.4273 32.3647 30.5998 31.7647 30.5998H2.11765ZM29.6471 12.5998C27.8824 12.5998 26.3824 12.0748 25.1471 11.0248C23.9118 9.97476 23.2941 8.69976 23.2941 7.19976C23.2941 5.69976 23.9118 4.42476 25.1471 3.37476C26.3824 2.32476 27.8824 1.79976 29.6471 1.79976C31.4118 1.79976 32.9118 2.32476 34.1471 3.37476C35.3824 4.42476 36 5.69976 36 7.19976C36 8.69976 35.3824 9.97476 34.1471 11.0248C32.9118 12.0748 31.4118 12.5998 29.6471 12.5998Z" fill="#01381E"/>
</svg>
