<svg width="36" height="36" viewBox="0 0 36 36" fill="none" xmlns="http://www.w3.org/2000/svg">
<path d="M25.2461 26.55C24.8706 26.1167 24.6828 25.6247 24.6828 25.074C24.6828 24.5247 24.8706 24.0667 25.2461 23.7L29.0356 20H14.3385C13.7582 20 13.272 19.808 12.8801 19.424C12.4868 19.0413 12.2902 18.5667 12.2902 18C12.2902 17.4333 12.4868 16.958 12.8801 16.574C13.272 16.1913 13.7582 16 14.3385 16H29.0356L25.2461 12.3C24.8364 11.9 24.6316 11.4253 24.6316 10.876C24.6316 10.3253 24.8364 9.85 25.2461 9.45C25.6216 9.05 26.0914 8.85 26.6554 8.85C27.218 8.85 27.6871 9.03333 28.0626 9.4L35.4367 16.6C35.6415 16.8 35.787 17.0167 35.873 17.25C35.9577 17.4833 36 17.7333 36 18C36 18.2667 35.9577 18.5167 35.873 18.75C35.787 18.9833 35.6415 19.2 35.4367 19.4L28.0626 26.6C27.6188 27.0333 27.1326 27.2247 26.6042 27.174C26.0743 27.1247 25.6216 26.9167 25.2461 26.55ZM4.09673 36C2.97013 36 2.00535 35.6087 1.20239 34.826C0.400796 34.042 0 33.1 0 32V4C0 2.9 0.400796 1.958 1.20239 1.174C2.00535 0.391333 2.97013 0 4.09673 0H16.3869C16.9673 0 17.4541 0.191333 17.8474 0.574C18.2393 0.958 18.4353 1.43333 18.4353 2C18.4353 2.56667 18.2393 3.04133 17.8474 3.424C17.4541 3.808 16.9673 4 16.3869 4H4.09673V32H16.3869C16.9673 32 17.4541 32.192 17.8474 32.576C18.2393 32.9587 18.4353 33.4333 18.4353 34C18.4353 34.5667 18.2393 35.0413 17.8474 35.424C17.4541 35.808 16.9673 36 16.3869 36H4.09673Z" fill="#01381E"/>
</svg>
