<svg width="36" height="36" viewBox="0 0 36 36" fill="none" xmlns="http://www.w3.org/2000/svg">
<path d="M31.7631 19.7623C31.8402 19.1998 31.8788 18.6185 31.8788 17.9998C31.8788 17.3998 31.8402 16.7998 31.7438 16.2373L35.6569 13.2748C36.0039 13.0123 36.1002 12.506 35.8882 12.131L32.1872 5.90601C31.9559 5.49351 31.474 5.36226 31.0499 5.49351L26.4429 7.29351C25.4791 6.58101 24.4575 5.98101 23.3202 5.53101L22.6263 0.768506C22.5492 0.318506 22.1636 -0.000244141 21.701 -0.000244141H14.299C13.8364 -0.000244141 13.4701 0.318506 13.393 0.768506L12.6991 5.53101C11.5618 5.98101 10.5209 6.59976 9.57635 7.29351L4.96937 5.49351C4.5453 5.34351 4.0634 5.49351 3.83208 5.90601L0.150354 12.131C-0.0809589 12.5248 -0.00385476 13.0123 0.381667 13.2748L4.29471 16.2373C4.19833 16.7998 4.12123 17.4185 4.12123 17.9998C4.12123 18.581 4.15978 19.1998 4.25616 19.7623L0.343115 22.7248C-0.00385473 22.9873 -0.100235 23.4935 0.111802 23.8685L3.81281 30.0935C4.04412 30.506 4.52602 30.6373 4.9501 30.506L9.55708 28.706C10.5209 29.4185 11.5425 30.0185 12.6798 30.4685L13.3737 35.231C13.4701 35.681 13.8364 35.9998 14.299 35.9998H21.701C22.1636 35.9998 22.5492 35.681 22.607 35.231L23.3009 30.4685C24.4382 30.0185 25.4791 29.4185 26.4236 28.706L31.0306 30.506C31.4547 30.656 31.9366 30.506 32.1679 30.0935L35.8689 23.8685C36.1002 23.456 36.0039 22.9873 35.6376 22.7248L31.7631 19.7623ZM18 24.7498C14.1833 24.7498 11.0606 21.7123 11.0606 17.9998C11.0606 14.2873 14.1833 11.2498 18 11.2498C21.8167 11.2498 24.9394 14.2873 24.9394 17.9998C24.9394 21.7123 21.8167 24.7498 18 24.7498Z" fill="#01381E"/>
</svg>
