<svg width="14" height="14" viewBox="0 0 14 14" fill="none" xmlns="http://www.w3.org/2000/svg">
<path d="M1.4 14C1.015 14 0.685533 13.863 0.4116 13.5891C0.1372 13.3147 0 12.985 0 12.6V1.4C0 1.015 0.1372 0.6853 0.4116 0.4109C0.685533 0.136967 1.015 0 1.4 0H12.6C12.985 0 13.3147 0.136967 13.5891 0.4109C13.863 0.6853 14 1.015 14 1.4V12.6C14 12.985 13.863 13.3147 13.5891 13.5891C13.3147 13.863 12.985 14 12.6 14H1.4ZM1.4 9.8V12.6H4.2V9.8H1.4ZM5.6 9.8V12.6H8.4V9.8H5.6ZM9.8 12.6H12.6V9.8H9.8V12.6ZM1.4 8.4H4.2V5.6H1.4V8.4ZM5.6 8.4H8.4V5.6H5.6V8.4ZM9.8 8.4H12.6V5.6H9.8V8.4ZM4.2 1.4H1.4V4.2H4.2V1.4ZM5.6 4.2H8.4V1.4H5.6V4.2ZM9.8 4.2H12.6V1.4H9.8V4.2Z" fill="#01381E"/>
</svg>
