<svg width="32" height="33" viewBox="0 0 32 33" fill="none" xmlns="http://www.w3.org/2000/svg">
<path d="M26.718 22.5984C30.12 19.5624 32 16.1224 32 16.1224C32 16.1224 26 5.12241 16 5.12241C14.079 5.12743 12.1796 5.52773 10.42 6.29841L11.96 7.84041C13.2555 7.3709 14.6221 7.12802 16 7.12241C20.24 7.12241 23.758 9.45841 26.336 12.0364C27.5781 13.2826 28.6904 14.6516 29.656 16.1224C29.5413 16.2957 29.4113 16.4877 29.266 16.6984C28.596 17.6584 27.606 18.9384 26.336 20.2084C26.0067 20.5391 25.662 20.8631 25.302 21.1804L26.718 22.5984Z" fill="black" fill-opacity="0.63"/>
<path d="M22.594 18.4744C23.0403 17.2261 23.123 15.8767 22.8323 14.5833C22.5417 13.2898 21.8898 12.1055 20.9524 11.1681C20.015 10.2306 18.8306 9.57869 17.5372 9.28807C16.2437 8.99745 14.8943 9.0801 13.646 9.52641L15.292 11.1724C16.0606 11.0624 16.8443 11.1329 17.5809 11.3783C18.3176 11.6238 18.9869 12.0374 19.536 12.5864C20.085 13.1355 20.4986 13.8048 20.7441 14.5415C20.9895 15.2781 21.06 16.0618 20.95 16.8304L22.594 18.4744ZM16.708 21.0724L18.352 22.7164C17.1037 23.1627 15.7543 23.2454 14.4608 22.9548C13.1674 22.6641 11.9831 22.0122 11.0456 21.0748C10.1082 20.1374 9.45629 18.953 9.16567 17.6596C8.87504 16.3661 8.9577 15.0167 9.40401 13.7684L11.05 15.4144C10.94 16.183 11.0105 16.9667 11.2559 17.7034C11.5014 18.44 11.915 19.1094 12.464 19.6584C13.0131 20.2074 13.6824 20.621 14.4191 20.8665C15.1557 21.1119 15.9394 21.1824 16.708 21.0724Z" fill="black" fill-opacity="0.63"/>
<path d="M6.7 11.0624C6.34 11.3824 5.99467 11.7071 5.664 12.0364C4.42193 13.2826 3.30956 14.6516 2.344 16.1224L2.734 16.6984C3.404 17.6584 4.394 18.9384 5.664 20.2084C8.242 22.7864 11.762 25.1224 16 25.1224C17.432 25.1224 18.78 24.8564 20.04 24.4024L21.58 25.9464C19.8204 26.7171 17.921 27.1174 16 27.1224C6 27.1224 0 16.1224 0 16.1224C0 16.1224 1.878 12.6804 5.282 9.64641L6.698 11.0644L6.7 11.0624ZM27.292 28.8304L3.292 4.83041L4.708 3.41441L28.708 27.4144L27.292 28.8304Z" fill="black" fill-opacity="0.63"/>
</svg>
