<svg width="220" height="200" viewBox="0 0 220 200" fill="none" xmlns="http://www.w3.org/2000/svg">
<path d="M119.048 16.4548L108.204 13.4428L87.4905 90.7104C85.863 96.7814 89.4113 103.104 95.3756 104.761L171.285 125.844L174.244 114.806L98.3347 93.7224L119.048 16.4548ZM211.72 18.4743L146.654 0.402341C140.69 -1.25425 134.479 2.35755 132.851 8.42857L115.097 74.6579C113.469 80.7289 117.018 87.0515 122.982 88.7081L188.047 106.78C194.012 108.437 200.223 104.825 201.85 98.7538L219.605 32.5245C221.232 26.4535 217.684 20.1309 211.72 18.4743ZM149.849 75.4152L163.164 25.7432L189.039 59.6152L149.849 75.4152Z" fill="#01381E"/>
<path d="M131.773 160.722L108.936 74.8202C107.142 68.0707 100.249 64.0428 93.6181 65.8692L9.22596 89.1144C2.59515 90.9408 -1.36199 97.9574 0.432314 104.707L23.2689 190.609C25.0632 197.358 31.9565 201.386 38.5873 199.56L122.979 176.315C129.61 174.488 133.567 167.472 131.773 160.722ZM47.4514 147.73L67.4313 162.048L81.1727 128.564L118.086 157.907L33.6937 181.152L47.4514 147.73Z" fill="#01381E"/>
</svg>
