<svg width="36" height="36" viewBox="0 0 36 36" fill="none" xmlns="http://www.w3.org/2000/svg">
<path d="M12.6 0C5.66255 0 0 5.66255 0 12.6C0 19.5375 5.66255 25.2001 12.6 25.2001C15.7464 25.2001 18.6211 24.0265 20.8337 22.1063L21.6001 22.8727V25.2001L31.6548 35.2548C32.6484 36.2484 34.2612 36.2484 35.2548 35.2548C36.2484 34.2612 36.2484 32.6484 35.2548 31.6548L25.2001 21.6001H22.8727L22.1063 20.8337C24.0265 18.6211 25.2001 15.7464 25.2001 12.6C25.2001 5.66255 19.5375 0 12.6 0ZM12.6 3.60001C17.5919 3.60001 21.6001 7.60814 21.6001 12.6C21.6001 17.5919 17.5919 21.6001 12.6 21.6001C7.60814 21.6001 3.60001 17.5919 3.60001 12.6C3.60001 7.60814 7.60814 3.60001 12.6 3.60001Z" fill="#01381E"/>
</svg>
