<svg width="16" height="14" viewBox="0 0 16 14" fill="none" xmlns="http://www.w3.org/2000/svg">
<path fill-rule="evenodd" clip-rule="evenodd" d="M11.2904 7.98877C12.2775 8.80252 12.9692 9.90502 12.9692 11.375V14H15.8512V11.375C15.8512 9.46752 13.279 8.33877 11.2904 7.98877Z" fill="#01381E"/>
<path d="M5.76408 7C7.35579 7 8.64612 5.433 8.64612 3.5C8.64612 1.567 7.35579 0 5.76408 0C4.17237 0 2.88203 1.567 2.88203 3.5C2.88203 5.433 4.17237 7 5.76408 7Z" fill="#01381E"/>
<path fill-rule="evenodd" clip-rule="evenodd" d="M10.0872 7C11.6795 7 12.9692 5.43375 12.9692 3.5C12.9692 1.56625 11.6795 0 10.0872 0C9.74852 0 9.43149 0.0874998 9.12888 0.21C9.7269 1.11125 10.0872 2.2575 10.0872 3.5C10.0872 4.7425 9.7269 5.88875 9.12888 6.79C9.43149 6.9125 9.74852 7 10.0872 7Z" fill="#01381E"/>
<path fill-rule="evenodd" clip-rule="evenodd" d="M5.76409 7.875C3.84032 7.875 0 9.0475 0 11.375V14H11.5282V11.375C11.5282 9.0475 7.68785 7.875 5.76409 7.875Z" fill="#01381E"/>
</svg>
